<svg width="32" height="32" viewBox="0 0 32 32" fill="none" xmlns="http://www.w3.org/2000/svg">
  <!-- Background circle with gradient -->
  <circle cx="16" cy="16" r="16" fill="url(#gradient)"/>
  
  <defs>
    <linearGradient id="gradient" x1="0%" y1="0%" x2="100%" y2="100%">
      <stop offset="0%" style="stop-color:#9333ea;stop-opacity:1" />
      <stop offset="100%" style="stop-color:#2563eb;stop-opacity:1" />
    </linearGradient>
  </defs>
  
  <!-- Receipt icon (centered) -->
  <g transform="translate(8, 6)">
    <!-- Receipt body -->
    <rect x="0" y="2" width="16" height="18" rx="1" fill="white"/>
    
    <!-- Receipt tear pattern at top -->
    <path d="M0 2 Q0 1 1 1 L2 1 L2.5 0 L3.5 1 L4.5 0 L5.5 1 L6.5 0 L7.5 1 L8.5 0 L9.5 1 L10.5 0 L11.5 1 L12.5 0 L13.5 1 L14 1 Q16 1 16 3 L16 2 L0 2 Z" 
          fill="white"/>
    
    <!-- Receipt lines -->
    <rect x="3" y="5" width="10" height="1" rx="0.5" fill="#9333ea" opacity="0.7"/>
    <rect x="3" y="8" width="7" height="1" rx="0.5" fill="#9333ea" opacity="0.7"/>
    <rect x="3" y="11" width="9" height="1" rx="0.5" fill="#9333ea" opacity="0.7"/>
    
    <!-- Total line (gradient) -->
    <rect x="3" y="15" width="10" height="1.5" rx="0.75" fill="url(#gradient)"/>
  </g>
</svg>
